ffmpeg started on 2016-12-05 at 05:59:17
Report written to "Output/x264/results/ffmpeg/sintelveryfast10000k.log"
Command line:
Tools/ffmpeg/ffmpeg -benchmark -y -i Input/y4m/sintel.y4m -c:v libx264 -preset veryfast -b:v 10000k -an Output/x264/encoded/sintelveryfast10000k.mkv
ffmpeg version N-82227-gdb23fde Copyright (c) 2000-2016 the FFmpeg developers
  built with gcc 5.4.0 (Ubuntu 5.4.0-6ubuntu1~16.04.2) 20160609
  configuration: --prefix=/home/jaroslav/ffmpeg_build --pkg-config-flags=--static --extra-cflags=-I/home/jaroslav/ffmpeg_build/include --extra-ldflags=-L/home/jaroslav/ffmpeg_build/lib --bindir=/home/jaroslav/bin --enable-gpl --enable-libass --enable-libfdk-aac --enable-libfreetype --enable-libmp3lame --enable-libopus --enable-libtheora --enable-libvorbis --enable-libvpx --enable-libx264 --enable-libx265 --enable-nvenc --enable-libmfx --enable-libxvid --enable-libgsm --enable-libopencore-amrnb --enable-version3 --enable-nonfree
  libavutil      55. 35.100 / 55. 35.100
  libavcodec     57. 66.101 / 57. 66.101
  libavformat    57. 57.100 / 57. 57.100
  libavdevice    57.  2.100 / 57.  2.100
  libavfilter     6. 66.100 /  6. 66.100
  libswscale      4.  3.100 /  4.  3.100
  libswresample   2.  4.100 /  2.  4.100
  libpostproc    54.  2.100 / 54.  2.100
Input #0, yuv4mpegpipe, from 'Input/y4m/sintel.y4m':
  Duration: 00:00:20.83, start: 0.000000, bitrate: 2057307 kb/s
    Stream #0:0: Video: rawvideo (I420 / 0x30323449), yuv420p(progressive), 4096x1744, SAR 1:1 DAR 256:109, 24 fps, 24 tbr, 24 tbn, 24 tbc
[libx264 @ 0x2ad31c0] using SAR=1/1
[libx264 @ 0x2ad31c0] using cpu capabilities: MMX2 SSE2Fast SSSE3 SSE4.2 AVX FMA3 AVX2 LZCNT BMI2
[libx264 @ 0x2ad31c0] profile High, level 5.1
[libx264 @ 0x2ad31c0] 264 - core 148 - H.264/MPEG-4 AVC codec - Copyleft 2003-2016 - http://www.videolan.org/x264.html - options: cabac=1 ref=1 deblock=1:0:0 analyse=0x3:0x113 me=hex subme=2 psy=1 psy_rd=1.00:0.00 mixed_ref=0 me_range=16 chroma_me=1 trellis=0 8x8dct=1 cqm=0 deadzone=21,11 fast_pskip=1 chroma_qp_offset=0 threads=6 lookahead_threads=2 sliced_threads=0 nr=0 decimate=1 interlaced=0 bluray_compat=0 constrained_intra=0 bframes=3 b_pyramid=2 b_adapt=1 b_bias=0 direct=1 weightb=1 open_gop=0 weightp=1 keyint=250 keyint_min=24 scenecut=40 intra_refresh=0 rc_lookahead=10 rc=abr mbtree=1 bitrate=10000 ratetol=1.0 qcomp=0.60 qpmin=0 qpmax=69 qpstep=4 ip_ratio=1.40 aq=1:1.00
Output #0, matroska, to 'Output/x264/encoded/sintelveryfast10000k.mkv':
  Metadata:
    encoder         : Lavf57.57.100
    Stream #0:0: Video: h264 (libx264) (H264 / 0x34363248), yuv420p, 4096x1744 [SAR 1:1 DAR 256:109], q=-1--1, 10000 kb/s, 24 fps, 1k tbn, 24 tbc
    Metadata:
      encoder         : Lavc57.66.101 libx264
    Side data:
      cpb: bitrate max/min/avg: 0/0/10000000 buffer size: 0 vbv_delay: -1
Stream mapping:
  Stream #0:0 -> #0:0 (rawvideo (native) -> h264 (libx264))
Press [q] to stop, [?] for help
frame=   11 fps=0.0 q=0.0 size=       0kB time=00:00:00.00 bitrate=N/A speed=   0x    frame=   17 fps= 16 q=0.0 size=       0kB time=00:00:00.00 bitrate=N/A speed=   0x    frame=   21 fps= 14 q=25.0 size=       1kB time=-00:00:00.08 bitrate=N/A speed=N/A    frame=   26 fps= 12 q=41.0 size=       1kB time=00:00:00.12 bitrate=  46.5kbits/s speed=0.0602x    frame=   37 fps= 14 q=41.0 size=       1kB time=00:00:00.58 bitrate=  10.0kbits/s speed=0.22x    frame=   48 fps= 15 q=40.0 size=       1kB time=00:00:01.04 bitrate=   5.6kbits/s speed=0.324x    frame=   59 fps= 16 q=39.0 size=       1kB time=00:00:01.50 bitrate=   3.9kbits/s speed=0.403x    frame=   70 fps= 16 q=38.0 size=       1kB time=00:00:01.95 bitrate=   3.0kbits/s speed=0.46x    frame=   80 fps= 12 q=37.0 size=       1kB time=00:00:02.37 bitrate=   2.5kbits/s speed=0.344x    frame=   81 fps=8.0 q=37.0 size=       1kB time=00:00:02.41 bitrate=   2.4kbits/s speed=0.24x    frame=   90 fps=8.5 q=37.0 size=       1kB time=00:00:02.79 bitrate=   2.1kbits/s speed=0.264x    frame=  100 fps=9.0 q=37.0 size=       1kB time=00:00:03.20 bitrate=   1.8kbits/s speed=0.289x    frame=  110 fps=9.4 q=36.0 size=       1kB time=00:00:03.62 bitrate=   1.6kbits/s speed=0.311x    frame=  121 fps=9.9 q=36.0 size=    5437kB time=00:00:04.08 bitrate=10905.7kbits/s speed=0.336x    frame=  133 fps= 10 q=35.0 size=    5437kB time=00:00:04.58 bitrate=9716.2kbits/s speed=0.362x    frame=  142 fps= 11 q=35.0 size=    5437kB time=00:00:04.95 bitrate=8981.4kbits/s speed=0.374x    frame=  154 fps= 11 q=35.0 size=    5437kB time=00:00:05.45 bitrate=8158.8kbits/s speed=0.395x    frame=  166 fps= 12 q=35.0 size=    5437kB time=00:00:05.95 bitrate=7474.2kbits/s speed=0.416x    frame=  178 fps= 12 q=35.0 size=    7876kB time=00:00:06.45 bitrate=9989.5kbits/s speed=0.435x    frame=  189 fps= 12 q=34.0 size=    7876kB time=00:00:06.91 bitrate=9326.7kbits/s speed=0.449x    frame=  200 fps= 12 q=34.0 size=    7876kB time=00:00:07.37 bitrate=8747.6kbits/s speed=0.46x    frame=  212 fps= 13 q=34.0 size=    8944kB time=00:00:07.87 bitrate=9303.1kbits/s speed=0.475x    frame=  223 fps= 13 q=33.0 size=    8944kB time=00:00:08.33 bitrate=8791.8kbits/s speed=0.488x    frame=  234 fps= 13 q=33.0 size=    8944kB time=00:00:08.79 bitrate=8332.9kbits/s speed= 0.5x    frame=  246 fps= 14 q=33.0 size=    8944kB time=00:00:09.29 bitrate=7884.5kbits/s speed=0.511x    frame=  259 fps= 14 q=33.0 size=    8944kB time=00:00:09.83 bitrate=7450.8kbits/s speed=0.525x    frame=  271 fps= 14 q=33.0 size=    8944kB time=00:00:10.33 bitrate=7090.3kbits/s speed=0.536x    frame=  282 fps= 14 q=32.0 size=    8944kB time=00:00:10.79 bitrate=6788.8kbits/s speed=0.545x    frame=  296 fps= 15 q=32.0 size=   12281kB time=00:00:11.37 bitrate=8843.7kbits/s speed=0.559x    frame=  309 fps= 15 q=32.0 size=   12281kB time=00:00:11.91 bitrate=8441.5kbits/s speed=0.571x    frame=  324 fps= 15 q=31.0 size=   12281kB time=00:00:12.54 bitrate=8020.9kbits/s speed=0.587x    frame=  340 fps= 16 q=30.0 size=   12281kB time=00:00:13.20 bitrate=7616.5kbits/s speed=0.603x    frame=  356 fps= 16 q=30.0 size=   12281kB time=00:00:13.87 bitrate=7250.3kbits/s speed=0.619x    frame=  372 fps= 16 q=29.0 size=   12281kB time=00:00:14.54 bitrate=6917.8kbits/s speed=0.634x    frame=  384 fps= 16 q=29.0 size=   15206kB time=00:00:15.04 bitrate=8280.8kbits/s speed=0.641x    frame=  394 fps= 16 q=29.0 size=   15206kB time=00:00:15.45 bitrate=8058.0kbits/s speed=0.644x    frame=  405 fps= 17 q=28.0 size=   15206kB time=00:00:15.91 bitrate=7825.6kbits/s speed=0.649x    frame=  415 fps= 17 q=28.0 size=   15206kB time=00:00:16.33 bitrate=7626.3kbits/s speed=0.65x    frame=  429 fps= 17 q=29.0 size=   15206kB time=00:00:16.91 bitrate=7363.1kbits/s speed=0.66x    frame=  439 fps= 17 q=29.0 size=   18160kB time=00:00:17.33 bitrate=8582.3kbits/s speed=0.663x    frame=  451 fps= 17 q=29.0 size=   18160kB time=00:00:17.83 bitrate=8341.7kbits/s speed=0.668x    frame=  465 fps= 17 q=29.0 size=   18160kB time=00:00:18.41 bitrate=8077.2kbits/s speed=0.678x    frame=  477 fps= 17 q=29.0 size=   18160kB time=00:00:18.91 bitrate=7863.7kbits/s speed=0.682x    frame=  489 fps= 17 q=29.0 size=   18160kB time=00:00:19.41 bitrate=7661.2kbits/s speed=0.688x    frame=  500 fps= 17 q=-1.0 Lsize=   22307kB time=00:00:20.70 bitrate=8824.0kbits/s speed=0.712x    
video:22302kB audio:0kB subtitle:0kB other streams:0kB global headers:0kB muxing overhead: 0.021829%
bench: utime=81.212s
bench: maxrss=918976kB
[libx264 @ 0x2ad31c0] frame I:8     Avg QP:23.75  size:160260
[libx264 @ 0x2ad31c0] frame P:284   Avg QP:28.84  size: 55259
[libx264 @ 0x2ad31c0] frame B:208   Avg QP:26.59  size: 28177
[libx264 @ 0x2ad31c0] consecutive B-frames: 41.2%  8.0%  6.0% 44.8%
[libx264 @ 0x2ad31c0] mb I  I16..4: 32.9% 57.0% 10.1%
[libx264 @ 0x2ad31c0] mb P  I16..4: 18.6% 21.5%  0.3%  P16..4: 15.4%  6.2%  1.6%  0.0%  0.0%    skip:36.4%
[libx264 @ 0x2ad31c0] mb B  I16..4:  3.0%  2.2%  0.1%  B16..8: 12.6%  3.7%  0.4%  direct: 3.3%  skip:74.6%  L0:41.1% L1:48.6% BI:10.3%
[libx264 @ 0x2ad31c0] final ratefactor: 25.98
[libx264 @ 0x2ad31c0] 8x8 transform intra:52.5% inter:58.9%
[libx264 @ 0x2ad31c0] coded y,uvDC,uvAC intra: 19.8% 16.9% 1.3% inter: 4.3% 6.1% 0.1%
[libx264 @ 0x2ad31c0] i16 v,h,dc,p: 46% 27% 14% 13%
[libx264 @ 0x2ad31c0] i8 v,h,dc,ddl,ddr,vr,hd,vl,hu: 19% 26% 37%  3%  3%  3%  3%  3%  3%
[libx264 @ 0x2ad31c0] i4 v,h,dc,ddl,ddr,vr,hd,vl,hu: 18% 26% 11%  8%  7%  6%  9%  5% 10%
[libx264 @ 0x2ad31c0] i8c dc,h,v,p: 69% 15% 14%  1%
[libx264 @ 0x2ad31c0] Weighted P-Frames: Y:0.4% UV:0.0%
[libx264 @ 0x2ad31c0] kb/s:8769.16
